<svg width="375" height="367" viewBox="0 0 375 367" fill="none" xmlns="http://www.w3.org/2000/svg">
<path d="M194 0L194.5 253.5C243.683 312.802 304.142 378.731 375 321.5V0H194Z" fill="#ED4264"/>
<path d="M0 206L1.90735e-06 0L172 4.76837e-06H364C355.041 30.9086 334.627 37.0226 318.5 67.5C294.886 112.127 275 95 251 225.5C239.561 287.697 183.948 372.024 134.5 366C80.1974 359.384 30.9611 256.936 0 206Z" fill="#222222"/>
<path d="M205.5 0C120 10 121.5 61 84.5 70C57.8343 76.4863 30 52 0 41.5V0H205.5Z" fill="#FFEDBC"/>
<path d="M38.6 172V136.2H51.2C52.9 136.2 54.4833 136.483 55.95 137.05C57.45 137.583 58.75 138.35 59.85 139.35C60.95 140.35 61.8167 141.55 62.45 142.95C63.0833 144.317 63.4 145.833 63.4 147.5C63.4 149.2 63.0833 150.75 62.45 152.15C61.8167 153.517 60.95 154.7 59.85 155.7C58.75 156.7 57.45 157.483 55.95 158.05C54.4833 158.583 52.9 158.85 51.2 158.85H45.35V172H38.6ZM51.3 152.45C53.0667 152.45 54.4 151.95 55.3 150.95C56.2 149.95 56.65 148.8 56.65 147.5C56.65 146.867 56.5333 146.25 56.3 145.65C56.1 145.05 55.7667 144.533 55.3 144.1C54.8667 143.633 54.3167 143.267 53.65 143C52.9833 142.733 52.2 142.6 51.3 142.6H45.35V152.45H51.3ZM67.3898 147.5H73.5398V150.9H73.9398C74.2398 150.3 74.6398 149.75 75.1398 149.25C75.6398 148.75 76.1898 148.317 76.7898 147.95C77.4232 147.583 78.0898 147.3 78.7898 147.1C79.5232 146.9 80.2398 146.8 80.9398 146.8C81.8065 146.8 82.5398 146.883 83.1398 147.05C83.7732 147.217 84.3065 147.433 84.7398 147.7L82.9898 153.65C82.5898 153.45 82.1398 153.3 81.6398 153.2C81.1732 153.067 80.5898 153 79.8898 153C78.9898 153 78.1732 153.183 77.4398 153.55C76.7065 153.883 76.0732 154.367 75.5398 155C75.0398 155.633 74.6398 156.383 74.3398 157.25C74.0732 158.083 73.9398 159 73.9398 160V172H67.3898V147.5ZM97.8375 146.7C99.7375 146.7 101.471 147.033 103.038 147.7C104.638 148.333 106.004 149.233 107.138 150.4C108.304 151.533 109.204 152.9 109.837 154.5C110.504 156.1 110.838 157.85 110.838 159.75C110.838 161.65 110.504 163.4 109.837 165C109.204 166.6 108.304 167.983 107.138 169.15C106.004 170.283 104.638 171.183 103.038 171.85C101.471 172.483 99.7375 172.8 97.8375 172.8C95.9375 172.8 94.1875 172.483 92.5875 171.85C91.0208 171.183 89.6542 170.283 88.4875 169.15C87.3542 167.983 86.4542 166.6 85.7875 165C85.1542 163.4 84.8375 161.65 84.8375 159.75C84.8375 157.85 85.1542 156.1 85.7875 154.5C86.4542 152.9 87.3542 151.533 88.4875 150.4C89.6542 149.233 91.0208 148.333 92.5875 147.7C94.1875 147.033 95.9375 146.7 97.8375 146.7ZM97.8375 166.75C98.6708 166.75 99.4708 166.6 100.238 166.3C101.038 165.967 101.738 165.5 102.338 164.9C102.938 164.3 103.404 163.567 103.738 162.7C104.104 161.833 104.288 160.85 104.288 159.75C104.288 158.65 104.104 157.667 103.738 156.8C103.404 155.933 102.938 155.2 102.338 154.6C101.738 154 101.038 153.55 100.238 153.25C99.4708 152.917 98.6708 152.75 97.8375 152.75C96.9708 152.75 96.1542 152.917 95.3875 153.25C94.6208 153.55 93.9375 154 93.3375 154.6C92.7375 155.2 92.2542 155.933 91.8875 156.8C91.5542 157.667 91.3875 158.65 91.3875 159.75C91.3875 160.85 91.5542 161.833 91.8875 162.7C92.2542 163.567 92.7375 164.3 93.3375 164.9C93.9375 165.5 94.6208 165.967 95.3875 166.3C96.1542 166.6 96.9708 166.75 97.8375 166.75ZM126.414 135.8C127.347 135.8 128.214 135.883 129.014 136.05C129.814 136.217 130.53 136.433 131.164 136.7L129.314 142.55C128.98 142.383 128.614 142.25 128.214 142.15C127.847 142.05 127.38 142 126.814 142C125.847 142 125.08 142.317 124.514 142.95C123.947 143.55 123.664 144.4 123.664 145.5V147.5H129.764V153.1H123.664V172H117.114V153.1H112.714V147.5H117.114V145.1C117.114 143.6 117.33 142.283 117.764 141.15C118.23 139.983 118.88 139.017 119.714 138.25C120.547 137.45 121.53 136.85 122.664 136.45C123.797 136.017 125.047 135.8 126.414 135.8ZM144.273 146.7C146.173 146.7 147.906 147.033 149.473 147.7C151.073 148.333 152.44 149.233 153.573 150.4C154.74 151.533 155.64 152.9 156.273 154.5C156.94 156.1 157.273 157.85 157.273 159.75C157.273 161.65 156.94 163.4 156.273 165C155.64 166.6 154.74 167.983 153.573 169.15C152.44 170.283 151.073 171.183 149.473 171.85C147.906 172.483 146.173 172.8 144.273 172.8C142.373 172.8 140.623 172.483 139.023 171.85C137.456 171.183 136.09 170.283 134.923 169.15C133.79 167.983 132.89 166.6 132.223 165C131.59 163.4 131.273 161.65 131.273 159.75C131.273 157.85 131.59 156.1 132.223 154.5C132.89 152.9 133.79 151.533 134.923 150.4C136.09 149.233 137.456 148.333 139.023 147.7C140.623 147.033 142.373 146.7 144.273 146.7ZM144.273 166.75C145.106 166.75 145.906 166.6 146.673 166.3C147.473 165.967 148.173 165.5 148.773 164.9C149.373 164.3 149.84 163.567 150.173 162.7C150.54 161.833 150.723 160.85 150.723 159.75C150.723 158.65 150.54 157.667 150.173 156.8C149.84 155.933 149.373 155.2 148.773 154.6C148.173 154 147.473 153.55 146.673 153.25C145.906 152.917 145.106 152.75 144.273 152.75C143.406 152.75 142.59 152.917 141.823 153.25C141.056 153.55 140.373 154 139.773 154.6C139.173 155.2 138.69 155.933 138.323 156.8C137.99 157.667 137.823 158.65 137.823 159.75C137.823 160.85 137.99 161.833 138.323 162.7C138.69 163.567 139.173 164.3 139.773 164.9C140.373 165.5 141.056 165.967 141.823 166.3C142.59 166.6 143.406 166.75 144.273 166.75ZM178.188 168.8H177.788C177.021 170.033 175.988 171.017 174.688 171.75C173.388 172.45 171.904 172.8 170.238 172.8C167.138 172.8 164.821 171.85 163.288 169.95C161.788 168.05 161.038 165.517 161.038 162.35V147.5H167.588V161.55C167.588 163.317 167.971 164.633 168.738 165.5C169.538 166.333 170.688 166.75 172.188 166.75C173.088 166.75 173.871 166.567 174.538 166.2C175.238 165.8 175.821 165.283 176.288 164.65C176.788 163.983 177.154 163.217 177.388 162.35C177.654 161.45 177.788 160.5 177.788 159.5V147.5H184.338V172H178.188V168.8ZM196.098 150.7H196.498C197.265 149.467 198.298 148.5 199.598 147.8C200.898 147.067 202.382 146.7 204.048 146.7C205.582 146.7 206.932 146.95 208.098 147.45C209.265 147.95 210.215 148.667 210.948 149.6C211.715 150.5 212.282 151.6 212.648 152.9C213.048 154.167 213.248 155.583 213.248 157.15V172H206.698V157.95C206.698 156.183 206.298 154.883 205.498 154.05C204.732 153.183 203.598 152.75 202.098 152.75C201.198 152.75 200.398 152.95 199.698 153.35C199.032 153.717 198.448 154.233 197.948 154.9C197.482 155.533 197.115 156.3 196.848 157.2C196.615 158.067 196.498 159 196.498 160V172H189.948V147.5H196.098V150.7ZM236.909 169.05H236.509C235.909 170.083 234.976 170.967 233.709 171.7C232.443 172.433 230.876 172.8 229.009 172.8C227.443 172.8 225.943 172.483 224.509 171.85C223.109 171.183 221.859 170.283 220.759 169.15C219.693 167.983 218.843 166.6 218.209 165C217.576 163.4 217.259 161.65 217.259 159.75C217.259 157.85 217.576 156.1 218.209 154.5C218.843 152.9 219.693 151.533 220.759 150.4C221.859 149.233 223.109 148.333 224.509 147.7C225.943 147.033 227.443 146.7 229.009 146.7C230.876 146.7 232.443 147.067 233.709 147.8C234.976 148.533 235.909 149.417 236.509 150.45H236.909L236.509 146.95V136.2H243.059V172H236.909V169.05ZM230.359 166.75C231.226 166.75 232.043 166.6 232.809 166.3C233.609 165.967 234.309 165.5 234.909 164.9C235.509 164.3 235.993 163.567 236.359 162.7C236.726 161.833 236.909 160.85 236.909 159.75C236.909 158.65 236.726 157.667 236.359 156.8C235.993 155.933 235.509 155.2 234.909 154.6C234.309 154 233.609 153.55 232.809 153.25C232.043 152.917 231.226 152.75 230.359 152.75C229.493 152.75 228.659 152.917 227.859 153.25C227.093 153.583 226.409 154.05 225.809 154.65C225.209 155.25 224.726 155.983 224.359 156.85C223.993 157.717 223.809 158.683 223.809 159.75C223.809 160.817 223.993 161.783 224.359 162.65C224.726 163.517 225.209 164.25 225.809 164.85C226.409 165.45 227.093 165.917 227.859 166.25C228.659 166.583 229.493 166.75 230.359 166.75Z" fill="white"/>
</svg>
